<svg xmlns="http://www.w3.org/2000/svg" viewBox="0 0 1182 190" width="1182" height="190"><title>Virtual Lab</title><g transform="translate(24,139.62) scale(0.048828,-0.048828)" fill="#0B0B0B"><path transform="translate(0.00,0)" d="M896 0 68 1536H288L1024 136L1760 1536H1977L1152 0Z"/><path transform="translate(2457.60,0)" d="M192 0V1536H384V0Z"/><path transform="translate(3443.20,0)" d="M196 1536H1224Q1449 1536 1586.5 1516.0Q1724 1496 1795.0 1447.0Q1866 1398 1891.0 1313.0Q1916 1228 1916 1098V1058Q1916 938 1887.5 851.5Q1859 765 1778.0 711.5Q1697 658 1538 636L1872 0H1680L1353 622Q1333 621 1311.5 621.0Q1290 621 1267 621H388V0H196ZM388 787H1237Q1408 787 1506.5 798.5Q1605 810 1651.5 839.0Q1698 868 1711.0 921.0Q1724 974 1724 1058V1098Q1724 1193 1706.0 1248.0Q1688 1303 1634.0 1329.0Q1580 1355 1473.0 1362.5Q1366 1370 1187 1370H388Z"/><path transform="translate(5939.80,0)" d="M862 0V1376H94V1536H1822V1376H1054V0Z"/><path transform="translate(8265.40,0)" d="M879 -32Q654 -32 509.0 -1.5Q364 29 282.5 111.0Q201 193 168.5 347.0Q136 501 136 748V1536H328V748Q328 578 340.0 466.0Q352 354 385.0 287.0Q418 220 479.5 187.0Q541 154 639.0 144.0Q737 134 879 134H1241Q1384 134 1481.5 144.0Q1579 154 1640.5 187.0Q1702 220 1735.0 287.0Q1768 354 1780.0 466.0Q1792 578 1792 748V1536H1984V748Q1984 501 1951.5 347.0Q1919 193 1837.5 111.0Q1756 29 1611.0 -1.5Q1466 -32 1241 -32Z"/><path transform="translate(10795.00,0)" d="M64 0 960 1536H1216L2112 0H1888L1696 352H480L288 0ZM576 512H1600L1088 1408Z"/><path transform="translate(13380.60,0)" d="M192 0V1536H384V160H1600V0Z"/><path transform="translate(16445.80,0)" d="M192 0V1536H384V160H1600V0Z"/><path transform="translate(18519.40,0)" d="M64 0 960 1536H1216L2112 0H1888L1696 352H480L288 0ZM576 512H1600L1088 1408Z"/><path transform="translate(21105.00,0)" d="M192 0V1536H1416Q1590 1536 1701.5 1503.5Q1813 1471 1866.5 1388.5Q1920 1306 1920 1155Q1920 1019 1857.0 930.0Q1794 841 1664 832Q1834 815 1909.0 710.5Q1984 606 1984 448Q1984 311 1952.5 223.0Q1921 135 1847.0 86.5Q1773 38 1646.5 19.0Q1520 0 1331 0ZM384 896H1279Q1434 896 1533.0 907.0Q1632 918 1680.0 972.0Q1728 1026 1728 1155Q1728 1256 1699.5 1303.0Q1671 1350 1603.0 1363.0Q1535 1376 1416 1376H384ZM384 160H1331Q1468 160 1557.5 167.0Q1647 174 1698.5 201.0Q1750 228 1771.0 286.5Q1792 345 1792 448Q1792 554 1752.5 613.0Q1713 672 1642.5 698.0Q1572 724 1479.0 730.0Q1386 736 1279 736H384Z"/></g></svg>